<?xml version="1.0" encoding="UTF-8"?>
<!DOCTYPE svg PUBLIC "-//W3C//DTD SVG 1.1//EN" "http://www.w3.org/Graphics/SVG/1.1/DTD/svg11.dtd">
<!-- Creator: CorelDRAW -->
<svg xmlns="http://www.w3.org/2000/svg" xml:space="preserve" width="147.245mm" height="147.245mm" version="1.1" style="shape-rendering:geometricPrecision; text-rendering:geometricPrecision; image-rendering:optimizeQuality; fill-rule:evenodd; clip-rule:evenodd"
viewBox="0 0 14710.23 14710.23"
 xmlns:xlink="http://www.w3.org/1999/xlink"
 xmlns:xodm="http://www.corel.com/coreldraw/odm/2003">
 <defs>
  <style type="text/css">
   <![CDATA[
    .fil0 {fill:none}
    .fil3 {fill:#AB6D2B}
    .fil2 {fill:#D4AB6F}
    .fil1 {fill:#D4AB6F}
   ]]>
  </style>
 </defs>
 <g id="Layer_x0020_1">
  <metadata id="CorelCorpID_0Corel-Layer"/>
  <rect class="fil0" width="14710.23" height="14710.23" rx="1198.84" ry="954.83"/>
  <path class="fil1" d="M9823.15 3613.77c-435.76,0 -967.73,-58.84 -1379.36,-99.56 -1487.23,-147.15 -2844.07,58.98 -4179.59,674.13 -592.98,273.13 -1165.95,578.29 -1658.52,984.37 -138.03,113.79 -404.94,304.34 -478.12,459.79 110.03,-34.99 1059.83,-702.85 2060.93,-1063.87 1813.2,-653.91 2575.31,-533.45 4260.1,-494.92 1347.58,30.83 2307.02,6.33 3541.8,-477.67 360.58,-141.33 1652.04,-707.57 1844.47,-901.95 -208.44,26.69 -689.39,229.94 -923.81,307.24 -936.12,308.71 -2028.79,612.44 -3087.91,612.44z"/>
  <path class="fil2" d="M3514.78 10028.61c-30.15,-309.42 217.64,-310.26 227.89,-339.35 3.95,-11.21 16.78,-7.9 26.45,-13.17l-11.62 -202.96 -798.42 0.05 -714.57 1928.61 -583.87 -1491.85c-212.8,-549.12 -14.46,-436.71 -959.17,-436.95l-6.53 274.14 278.09 -0.4 -32.05 1656.37c-0.04,209.2 -35.71,299.88 -247.36,316.92l1.43 247.22 811.09 0.81 0.32 -283.84 -280.57 0.5c25.24,-801.5 62.13,-909.22 -0.98,-1635.62l47.14 137.45c238.87,783.15 530.35,1306.05 691.72,1816.31l317.23 -0.36c28.18,-37.24 3.88,3.63 40.07,-65.58 4.72,-9.02 18.19,-37.67 22.67,-47.68 28.36,-63.46 24.66,-62.72 48.72,-128.13 23.39,-63.58 56.86,-152.78 85.64,-231.23 62.63,-170.78 109.6,-291.73 174.22,-459.42 61.81,-160.37 118.07,-318.07 180.78,-491.42 47.53,-131.37 104.79,-351.92 200.84,-444.1l58.11 1091.39c3.34,296.49 49.05,485.87 -247.65,493.32l-0.02 247.62 987.58 0.05 0.38 -282.88 -272.39 -9.78c69.37,-181.45 -18.27,-1312.42 -45.2,-1646.08z"/>
  <path class="fil2" d="M10270.54 11271.34c-338.47,-1296.74 -45.68,-474.6 -45.35,-1074.09l-860.24 0.4 0.11 253.94c182.51,4.32 116.3,-38.38 176.18,104.9 123.99,296.67 330.99,1064.29 491.56,1410.64l354.6 0.47c130.3,-383.11 270.95,-752.29 361.98,-1153.67 88.59,190.26 250.86,886.79 375.36,1153.23l354.86 0.14 342.86 -927.1c324.05,-966.12 398.32,-351.34 397.79,-842.92l-670.47 -0.03 0.26 254.7 188.3 0.22 -327.97 1020.11c-14.21,-171.5 -288.03,-1030.24 -353.13,-1275.23l-393.49 0.1c-133.15,346.93 -240.85,825.94 -348.38,1214.7l-44.83 -140.52z"/>
  <path class="fil1" d="M5328.8 6539.04c-1182.83,0.63 -1038.67,63.79 -1697.03,928.47 -196.11,257.57 -367.86,485.95 -569.66,734.23 -193.54,238.12 -585.06,631.34 -350.11,833.19 420.15,360.96 1170.92,-736.75 1416.6,-1035.68 96.44,-117.35 192.59,-223.21 291.32,-344.32l908.88 -1115.9z"/>
  <path class="fil2" d="M8131.65 11473.6c0.36,-207.21 265.52,-317 492.79,-317.03l-0.17 387.05c-118.85,80.03 -493.19,266.76 -492.62,-70.01zm3.12 -1018.5c238.54,-66.6 527.36,-219.08 483.46,448.2 -498.17,30.09 -983.94,137.54 -985.19,640.9 -0.66,269.3 133.97,424.61 360.09,457.02 331.59,47.53 458.23,-77.82 648.06,-174.28 43.2,213.38 -4.62,141 688.93,140.21l-0.24 -282.27c-95.31,-0.01 -149.63,6.63 -218.71,-35.06 39.87,-490.01 109.45,-1254.7 -306.87,-1448.16 -398.09,-184.99 -1211.82,-28.87 -1078.87,514.48 61.14,141.66 510.62,287.18 409.32,-261.05z"/>
  <path class="fil2" d="M4572.99 11577.63c-1.12,-191.92 15.2,-239.76 132.17,-323.11 98.57,-70.23 195.86,-100.49 352.39,-92.7 -0.39,204.57 31.1,375.22 -97.74,453.46 -169.69,103.05 -261.94,50.77 -386.83,-37.65zm0.31 -1124.71c274.68,-79.73 531.47,-156.34 481.81,446.55 -477.96,50.02 -995.34,143.91 -997.51,644.91 -2.36,542.57 679.49,589.91 972.64,280.86 5.28,6.78 9.78,18.05 12.73,22.44 106.12,157.31 20.69,119.54 128.03,119.56l599.47 0.25 -0.42 -284.25 -240.26 8.81c46.15,-676.08 174.37,-1552.83 -605.5,-1557.99 -936.25,-6.2 -848.24,620.5 -666.78,702.35 368.74,12.68 347.44,-102.35 315.8,-383.48z"/>
  <path class="fil2" d="M13311.8 11559.74c-85.26,43 -156.29,112.8 -280.13,110.01 -306.04,-6.88 -267.78,-506.19 280.31,-512.86l-0.18 402.85zm-457.89 -1107.25c497.26,-237.13 461.14,187.19 455.23,454.45 -1283.72,31.14 -1144.76,1066.83 -561.8,1100.17 314.87,18.01 429.66,-60.31 581.17,-201.08 61.57,195.2 -139.59,161.04 690.1,161.41l0.21 -283.19c-224.02,1.46 -195.45,57.85 -212.75,-104.95l0.15 -810.6c0.24,-1121.1 -1743.87,-554.15 -1359.76,-15.6 70.19,98.41 228.99,118.66 330.04,46.44 110.22,-78.77 72.09,-183.97 77.42,-347.05z"/>
  <path class="fil1" d="M4288.42 8691.12c308.23,196.69 440.12,45.52 716.03,-238.36l1635.61 -1831.6c-992.23,-122.34 -722.29,-310.73 -1646.18,904.32 -129.62,170.47 -266.01,334.28 -403.57,512.48 -69.54,90.1 -129.86,164.35 -203.28,255.81 -124.34,154.89 -107.4,155.41 -98.6,397.34z"/>
  <path class="fil1" d="M1258.29 8972.85c294.07,199.39 494.09,157.53 767.39,-186.7 184.92,-232.92 363.38,-437.18 540.44,-656.92l1055.08 -1308.87c-379.67,97.88 -1233.84,573.88 -1456.09,801.65l-505.9 623.17c-283.83,361.95 -400.61,382.72 -400.91,727.68z"/>
  <path class="fil2" d="M6695.39 10443.27c-45.91,-466.05 30.87,-240.04 -749.7,-176.02l-0.12 256.02 246.55 -0.87c0.79,185.06 11.93,878.8 -23.7,1031.7 -33.66,144.42 -44.62,154.25 -196.28,165.93l-0.22 247.22 926.14 -0.05 0.16 -282.64c-30.42,0.08 -110.04,3.85 -135.57,-4.91 -99.89,-34.25 -37.35,38.69 -76.04,-65.09 -0.35,-525.6 -111.39,-1035.28 351.9,-1140.21 35.23,169.83 53.63,188.86 282.34,189.32 223,0.27 290.45,-462.53 -42.79,-525.26 -266.97,-50.25 -481.72,167.86 -582.68,304.84z"/>
  <path class="fil3" d="M9823.15 4530.25l-2396.56 0.36c-1722.27,39.67 -3029.31,225.45 -4581.05,1128.71 -497.85,289.79 -968.25,629.49 -1348.54,1012.62 -201.51,203.02 -379.54,414.85 -560.8,637.48 -114.94,141.17 -654.83,784.4 -201.4,849.02 330.13,47.04 581.21,-398.16 903.47,-711.39 881.41,-856.73 2896.17,-1400.27 4272.85,-1401.09 779.74,-0.46 1093.75,43.39 1898.89,321.76 142.5,49.26 494.45,174.18 623.59,256.77 198.69,127.08 371.93,291.55 365.6,553.11 -596.94,395.91 -1491.99,-137.23 -2622.14,614.82 -574.17,382.08 -766.89,899.32 -195.44,897.05 312.45,-1.24 566,-175.9 1480.23,-175.99 3372.56,-0.34 4744.28,-141.12 6019.6,-3356.1 142.99,-360.46 639.67,-1795.68 672.49,-2138.17 -622.9,424.58 -1078.43,740.4 -1877.72,1039 -594.49,222.08 -1658.98,470.17 -2453.04,472.03z"/>
 </g>
</svg>
